# xmcd
#
# Track frame offsets:
#	150
#	18101
#	32846
#	47713
#	66692
#	81152
#	94661
#	110492
#	127765
#	142795
#	160746
#	175491
#	190358
#	209337
#	223797
#	237306
#	253137
#	270410
#
# Disc length: 3805
#
# Revision: 3
# Processed by: cddbd v1.5.2PL0 Copyright (c) Steve Scherf et al.
# Submitted via: kJams Pro (development) 1.0patch50.14
#
DISCID=010edb12
DTITLE=Various Artist - PHM020803−6 Country
DYEAR=2008
DGENRE=Karaoke
TTITLE0=Rascal Flatts - Every Day
TTITLE1=Keith, Toby - She's A Hottie
TTITLE2=West, Emily - Rocks In Your Shoes
TTITLE3=McEntire, Reba w⁄ Skip Ewing - Every Other Weekend
TTITLE4=Hough, Julianne - That Song In My Head
TTITLE5=Messina, Jo Dee - I'm Done
TTITLE6=Carroll, Jason Michael - I Can Sleep When I'm Dead
TTITLE7=Roberts, Mica f Toby Keith - Things A Mama Don't Know
TTITLE8=Black, Clint - Long Cool Woman
TTITLE9=Rascal Flatts - Every Day [w⁄Vocals]
TTITLE10=Keith, Toby - She's A Hottie [w⁄Vocals]
TTITLE11=West, Emily - Rocks in Your Shoes [w⁄Vocals]
TTITLE12=McEntire, Reba w⁄ Skip Ewing - Every Other Weekend [w⁄Vocals]
TTITLE13=Hough, Julianne - That Song In My Head [w⁄Vocals]
TTITLE14=Messina, Jo Dee - I'm Done [w⁄Vocals]
TTITLE15=Carroll, Jason Michael - I Can Sleep When I'm Dead [w⁄Vocals]
TTITLE16=Roberts, Mica f Toby Keith - Things A Mama Don't Know [w⁄Vocals]
TTITLE17=Black, Clint - Long Cool Woman [w⁄Vocals]
EXTD=
EXTT0=
EXTT1=
EXTT2=
EXTT3=
EXTT4=
EXTT5=
EXTT6=
EXTT7=
EXTT8=
EXTT9=
EXTT10=
EXTT11=
EXTT12=
EXTT13=
EXTT14=
EXTT15=
EXTT16=
EXTT17=
PLAYORDER=
